HIERARCHY
ROOT Hips
{
	OFFSET -0.001795 -0.223333 0.028219
	CHANNELS 6 Xposition Yposition Zposition Zrotation Yrotation Xrotation
	JOINT LeftUpLeg
	{
		OFFSET 0.069520 -0.091406 -0.006815
		CHANNELS 3 Zrotation Yrotation Xrotation
		JOINT LeftLeg
		{
			OFFSET 0.034277 -0.375199 -0.004496
			CHANNELS 3 Zrotation Yrotation Xrotation
			JOINT LeftFoot
			{
				OFFSET -0.013596 -0.397961 -0.043693
				CHANNELS 3 Zrotation Yrotation Xrotation
				JOINT LeftToe
				{
					OFFSET 0.026358 -0.055791 0.119288
					CHANNELS 3 Zrotation Yrotation Xrotation
					End Site
					{
						OFFSET 0.000000 0.000000 0.000000
					}
				}
			}
		}
	}
	JOINT RightUpLeg
	{
		OFFSET -0.067670 -0.090522 -0.004320
		CHANNELS 3 Zrotation Yrotation Xrotation
		JOINT RightLeg
		{
			OFFSET -0.038290 -0.382569 -0.008850
			CHANNELS 3 Zrotation Yrotation Xrotation
			JOINT RightFoot
			{
				OFFSET 0.015774 -0.398415 -0.042312
				CHANNELS 3 Zrotation Yrotation Xrotation
				JOINT RightToe
				{
					OFFSET -0.025372 -0.048144 0.123348
					CHANNELS 3 Zrotation Yrotation Xrotation
					End Site
					{
						OFFSET 0.000000 0.000000 0.000000
					}
				}
			}
		}
	}
	JOINT Spine
	{
		OFFSET -0.002533 0.108963 -0.026696
		CHANNELS 3 Zrotation Yrotation Xrotation
		JOINT Spine1
		{
			OFFSET 0.005487 0.135180 0.001092
			CHANNELS 3 Zrotation Yrotation Xrotation
			JOINT Spine2
			{
				OFFSET 0.001457 0.052922 0.025425
				CHANNELS 3 Zrotation Yrotation Xrotation
				JOINT Neck
				{
					OFFSET -0.002778 0.213870 -0.042857
					CHANNELS 3 Zrotation Yrotation Xrotation
					JOINT Head
					{
						OFFSET 0.005152 0.064970 0.051349
						CHANNELS 3 Zrotation Yrotation Xrotation
						End Site
						{
							OFFSET 0.000000 0.000000 0.000000
						}
					}
				}
				JOINT LeftShoulder
				{
					OFFSET 0.078845 0.121749 -0.034090
					CHANNELS 3 Zrotation Yrotation Xrotation
					JOINT LeftArm
					{
						OFFSET 0.090977 0.030469 -0.008868
						CHANNELS 3 Zrotation Yrotation Xrotation
						JOINT LeftForeArm
						{
							OFFSET 0.259612 -0.012772 -0.027456
							CHANNELS 3 Zrotation Yrotation Xrotation
							JOINT LeftHand
							{
								OFFSET 0.249234 0.008986 -0.001171
								CHANNELS 3 Zrotation Yrotation Xrotation
								End Site
								{
									OFFSET 0.000000 0.000000 0.000000
								}
							}
						}
					}
				}
				JOINT RightShoulder
				{
					OFFSET -0.081759 0.118833 -0.038615
					CHANNELS 3 Zrotation Yrotation Xrotation
					JOINT RightArm
					{
						OFFSET -0.096012 0.032551 -0.009143
						CHANNELS 3 Zrotation Yrotation Xrotation
						JOINT RightForeArm
						{
							OFFSET -0.253742 -0.013329 -0.021401
							CHANNELS 3 Zrotation Yrotation Xrotation
							JOINT RightHand
							{
								OFFSET -0.255298 0.007772 -0.005559
								CHANNELS 3 Zrotation Yrotation Xrotation
								End Site
								{
									OFFSET 0.000000 0.000000 0.000000
								}
							}
						}
					}
				}
			}
		}
	}
}
MOTION
Frames: 14
Frame Time: 0.050000
-0.245780 0.788469 0.103505 -16.915213 -3.249208 -26.668919 36.588571 -0.884045 7.966304 -2.816790 -4.241966 69.802776 9.666648 18.996744 -6.357234 0.000000 0.000000 0.000000 -4.969161 1.260817 -23.139939 9.881034 -5.660029 69.272175 -6.158539 -15.584054 6.929017 0.000000 0.000000 0.000000 -19.830176 -1.416381 5.529984 31.890663 -31.519126 12.899296 -49.607992 13.106573 -47.749368 -19.149406 -9.948469 43.033053 0.000000 0.000000 0.000000 2.980801 -5.277411 4.047105 9.803047 -8.405003 -1.280781 10.228339 -43.716410 -4.234492 0.000000 0.000000 0.000000 29.057881 14.443441 25.466247 -12.219312 0.478948 1.532088 0.914221 12.667704 0.407590 0.000000 0.000000 0.000000
-0.313359 0.853301 0.129068 -18.134445 -3.476361 -23.262606 36.579698 1.752186 -3.998427 -3.424352 -3.441920 72.948234 7.332129 15.304651 2.526924 0.000000 0.000000 0.000000 2.686952 1.677076 -11.956864 2.895901 0.089179 51.233975 -2.401890 -9.283209 11.927981 0.000000 0.000000 0.000000 -27.605176 -1.115467 6.251891 25.598266 -18.432653 4.368878 -38.043732 19.966796 -27.164404 -11.931918 -8.936604 41.325848 0.000000 0.000000 0.000000 -2.147312 -9.907576 1.441900 16.926611 -4.702521 -1.404348 6.961317 -30.648954 -1.229812 0.000000 0.000000 0.000000 35.568880 10.975651 20.767637 -19.357606 -3.364695 3.805441 1.064370 17.961189 0.404017 0.000000 0.000000 0.000000
-0.371493 0.890048 0.156116 -19.497003 -0.130128 -19.827916 32.094294 2.669827 -13.754562 -11.620472 3.194920 68.210716 11.665100 23.309227 -3.679430 0.000000 0.000000 0.000000 7.527309 1.264224 -6.069717 -0.301805 0.974689 40.006701 1.040369 -2.204811 11.359761 0.000000 0.000000 0.000000 -32.338892 0.811904 14.051888 14.516432 -7.272143 -8.174270 -21.600142 21.138444 -7.284092 -2.569149 -10.327599 29.596918 0.000000 0.000000 0.000000 -7.589184 -9.459683 -0.150688 17.649419 -6.990021 -1.127705 10.275729 -27.677194 -2.093833 0.000000 0.000000 0.000000 33.183679 7.163415 13.213970 -20.084665 -7.894334 5.445704 3.080236 22.777592 0.721093 0.000000 0.000000 0.000000
-0.418811 0.913098 0.182535 -21.962738 2.270840 -17.691323 27.753497 1.791557 -14.473320 -20.074401 6.785397 45.503230 15.979182 31.578867 -5.676400 0.000000 0.000000 0.000000 11.598891 0.983847 -3.646390 -1.431961 0.993343 31.019555 -1.344422 -7.013750 13.699439 0.000000 0.000000 0.000000 -35.103986 2.809698 21.340082 11.931047 -4.070750 -18.520842 -16.016984 21.907058 5.395110 -0.947513 -8.474163 24.189443 0.000000 0.000000 0.000000 -9.030047 -9.335139 -0.090551 13.119230 -5.884006 -0.267548 12.287584 -22.287495 -2.452375 0.000000 0.000000 0.000000 31.172071 4.385076 10.499346 -20.216318 -11.028702 6.649024 4.265312 24.639093 0.741447 0.000000 0.000000 0.000000
-0.456505 0.926360 0.208081 -25.609530 8.053687 -16.324416 27.384748 1.233027 -18.494157 -21.842856 5.036009 31.729184 17.710433 31.440582 11.443881 0.000000 0.000000 0.000000 15.424974 0.825991 -2.809510 2.971559 -1.352845 26.753394 -3.223732 -9.745664 13.278676 0.000000 0.000000 0.000000 -33.493433 2.849621 25.415294 3.559849 -0.811971 -13.015560 -11.396897 15.872854 6.233160 4.473334 -6.872370 8.506792 0.000000 0.000000 0.000000 -8.624065 -9.030935 0.535500 4.709562 -8.798062 -0.387862 14.373893 -18.581046 -2.415916 0.000000 0.000000 0.000000 21.908581 1.256402 4.492629 -8.532976 -14.555249 3.528468 2.302395 26.559799 1.042887 0.000000 0.000000 0.000000
-0.485605 0.929535 0.230368 -28.145893 8.596820 -14.405828 29.590803 1.219653 -18.964933 -17.631240 3.283390 25.182526 20.770257 34.733959 14.996316 0.000000 0.000000 0.000000 16.540099 1.545738 -6.003469 5.731806 -2.598815 27.424244 -1.517550 -6.352839 12.822114 0.000000 0.000000 0.000000 -32.532630 3.768807 30.211171 5.733894 -0.890984 -23.506990 -11.988011 17.340608 19.237108 4.404551 -3.797835 2.113099 0.000000 0.000000 0.000000 -10.551652 -8.377436 -0.136137 0.278955 -11.551880 -0.573173 15.592944 -14.400021 -2.246288 0.000000 0.000000 0.000000 18.042306 -1.937680 2.847499 0.205244 -13.244798 0.921675 -0.999696 24.733235 0.475714 0.000000 0.000000 0.000000
-0.506179 0.932790 0.247136 -29.853043 8.997258 -12.024501 32.350122 1.702609 -21.989126 -16.527514 2.988698 23.909203 28.785046 41.691207 22.483317 0.000000 0.000000 0.000000 14.832902 2.313756 -10.019660 3.996643 -1.909793 27.797277 -1.612214 -7.282336 18.206881 0.000000 0.000000 0.000000 -31.849376 4.178668 32.235486 3.874084 -0.389881 -22.143725 -11.724708 14.875372 21.353397 3.367403 0.372061 -9.526870 0.000000 0.000000 0.000000 -11.121890 -10.664656 1.075607 -4.325374 -11.423729 -0.609954 15.609901 -12.184580 -1.853895 0.000000 0.000000 0.000000 14.924480 -1.881898 1.857789 7.906848 -17.322514 -1.348364 0.706127 22.186590 0.879644 0.000000 0.000000 0.000000
-0.519620 0.932972 0.259609 -29.873500 8.890828 -8.050352 33.703886 2.065619 -23.514130 -17.061045 3.128714 21.148899 36.271437 47.523703 26.471121 0.000000 0.000000 0.000000 11.889063 2.517945 -12.716891 4.256662 -1.618028 24.924048 -0.849826 -6.384113 19.867624 0.000000 0.000000 0.000000 -31.050415 4.983374 34.664115 -1.163674 0.993771 -25.998326 -9.784021 11.739309 26.203363 -0.132329 3.802353 -16.858983 0.000000 0.000000 0.000000 -10.529236 -12.901461 2.789774 -6.386929 -14.230318 -0.845488 11.256499 -9.541225 -0.915987 0.000000 0.000000 0.000000 14.639590 -1.875300 1.431473 13.224846 -19.365551 -3.195687 3.502440 19.264450 1.147278 0.000000 0.000000 0.000000
-0.527697 0.936373 0.268882 -29.050897 7.681093 -3.815789 34.774369 2.739013 -25.031808 -15.915906 2.903728 18.313940 45.061631 50.524019 37.341616 0.000000 0.000000 0.000000 9.739008 2.690353 -15.413398 4.514380 -1.332790 22.834501 -0.839938 -7.563455 24.343436 0.000000 0.000000 0.000000 -31.824961 6.425513 36.649766 -0.708262 0.882422 -26.012700 -12.436504 9.887551 25.511458 -1.949677 4.798330 -20.923449 0.000000 0.000000 0.000000 -8.972599 -14.364060 3.894300 -7.892456 -16.766143 -0.935921 7.951146 -8.756101 -0.481422 0.000000 0.000000 0.000000 13.717231 -1.765589 0.901510 16.942086 -20.077539 -4.294501 8.748403 17.927884 1.784388 0.000000 0.000000 0.000000
-0.532891 0.941856 0.274601 -28.214352 8.163931 0.764196 35.063964 3.272729 -28.088712 -13.032027 2.174153 15.743711 42.764134 46.618858 43.626000 0.000000 0.000000 0.000000 8.464051 2.729804 -17.125687 4.128993 -0.900799 18.023079 -1.309837 -9.132641 29.151790 0.000000 0.000000 0.000000 -29.505543 6.827610 39.879444 -3.401421 1.495884 -25.721865 -14.038779 5.339951 26.328019 -5.294847 6.183473 -22.127918 0.000000 0.000000 0.000000 -11.160741 -16.593423 5.466401 -4.766644 -16.899687 -1.054442 4.865625 -8.557900 -0.157879 0.000000 0.000000 0.000000 15.403381 0.114866 1.263389 17.057989 -21.102418 -4.324841 12.632117 17.399973 2.149230 0.000000 0.000000 0.000000
-0.536124 0.948007 0.277614 -27.470923 8.611125 4.365212 34.980463 3.642898 -30.659208 -11.921237 1.916033 14.488339 40.103004 44.086994 46.008777 0.000000 0.000000 0.000000 8.336235 2.974316 -19.361125 4.747734 -0.960969 15.920199 -1.930842 -10.073562 29.111866 0.000000 0.000000 0.000000 -28.621464 7.506450 43.467560 -5.332426 1.946988 -24.586951 -14.652366 2.014340 25.793008 -7.998523 7.225587 -22.616089 0.000000 0.000000 0.000000 -9.710655 -17.598407 6.372503 -2.443796 -18.978744 -1.245581 3.337493 -7.282036 -0.013498 0.000000 0.000000 0.000000 18.148036 0.924166 1.036482 19.190355 -19.914353 -4.795286 12.305905 17.035076 2.028670 0.000000 0.000000 0.000000
-0.538799 0.951927 0.279174 -26.376710 9.798563 7.498662 34.159904 3.846983 -34.294637 -9.190658 1.377788 15.752507 32.036277 38.865043 45.192984 0.000000 0.000000 0.000000 7.082062 3.090305 -22.033991 5.075172 -1.053830 15.715802 -3.482935 -12.167227 29.548147 0.000000 0.000000 0.000000 -28.448608 8.046739 46.443463 -5.935154 2.200843 -21.228206 -13.232147 -2.218853 24.378965 -11.414087 8.647919 -21.664997 0.000000 0.000000 0.000000 -8.996620 -18.380940 7.225238 -1.230727 -18.619729 -1.258631 3.301223 -8.921971 -0.003747 0.000000 0.000000 0.000000 20.664570 3.970305 1.697795 19.527210 -18.221509 -4.502302 11.149552 18.439648 2.016227 0.000000 0.000000 0.000000
-0.541199 0.950198 0.279694 -25.500367 9.548752 9.994407 35.017807 4.169990 -34.607933 -9.843592 1.506299 13.983403 27.835411 36.486362 42.440195 0.000000 0.000000 0.000000 6.725768 3.366343 -24.806607 7.353040 -1.513371 13.707626 -4.210464 -13.168350 27.593063 0.000000 0.000000 0.000000 -29.181727 9.045964 48.132109 -4.650673 1.888371 -21.060137 -13.120338 -2.488402 23.709993 -12.276714 9.296737 -17.717225 0.000000 0.000000 0.000000 -8.022638 -19.483771 7.672148 -0.023098 -20.400448 -1.440061 3.368092 -8.234632 -0.000996 0.000000 0.000000 0.000000 22.036802 5.136811 2.205400 22.074601 -14.543566 -4.692590 8.814073 19.601432 1.838082 0.000000 0.000000 0.000000
-0.544513 0.946432 0.279640 -23.939308 10.900395 12.569512 34.812432 4.244215 -37.283998 -9.589422 1.423242 13.648173 22.803017 32.885365 41.773714 0.000000 0.000000 0.000000 7.008847 3.635507 -27.422807 7.598807 -1.460480 11.343279 -2.834490 -11.023477 26.991192 0.000000 0.000000 0.000000 -28.065354 8.901463 50.670596 -3.888410 1.727982 -21.096502 -13.161937 -3.199568 23.275559 -12.417435 9.375358 -16.432394 0.000000 0.000000 0.000000 -8.407476 -20.925945 8.444395 1.454722 -20.043105 -1.500888 2.193807 -9.592512 0.082373 0.000000 0.000000 0.000000 23.991185 8.837375 4.375287 21.345462 -13.291855 -4.255170 9.112672 21.724829 2.072054 0.000000 0.000000 0.000000
